<svg width="79" height="78" viewBox="0 0 79 78" fill="none" xmlns="http://www.w3.org/2000/svg">
<rect x="1.66699" y="1" width="76" height="76" rx="13" fill="#FFDECC"/>
<rect x="1.66699" y="1" width="76" height="76" rx="13" stroke="#262626" stroke-width="2"/>
<path fill-rule="evenodd" clip-rule="evenodd" d="M43.3719 24.2595C43.7986 24.4974 44.0081 24.9957 43.8796 25.4671L41.0581 35.8125H51.3545C51.7776 35.8125 52.1604 36.0635 52.329 36.4516C52.4976 36.8396 52.4199 37.2907 52.1313 37.6L37.2563 53.5375C36.9229 53.8947 36.3889 53.9785 35.9621 53.7406C35.5354 53.5026 35.3259 53.0044 35.4545 52.533L38.2759 42.1875H27.9795C27.5564 42.1875 27.1737 41.9365 27.005 41.5485C26.8364 41.1605 26.9141 40.7094 27.2028 40.4001L42.0778 24.4626C42.4111 24.1054 42.9451 24.0216 43.3719 24.2595Z" fill="#262626"/>
</svg>
