<svg width="79" height="78" viewBox="0 0 79 78" fill="none" xmlns="http://www.w3.org/2000/svg">
<rect x="1.33301" y="1" width="76" height="76" rx="13" fill="#FFDECC"/>
<rect x="1.33301" y="1" width="76" height="76" rx="13" stroke="#262626" stroke-width="2"/>
<path d="M48.3643 25.1875C46.8973 25.1875 45.708 26.3767 45.708 27.8438V50.1562C45.708 51.6233 46.8973 52.8125 48.3643 52.8125H49.4268C50.8938 52.8125 52.083 51.6233 52.083 50.1562V27.8438C52.083 26.3767 50.8938 25.1875 49.4268 25.1875H48.3643Z" fill="#262626"/>
<path d="M36.1455 34.2188C36.1455 32.7517 37.3348 31.5625 38.8018 31.5625H39.8643C41.3313 31.5625 42.5205 32.7517 42.5205 34.2188V50.1562C42.5205 51.6233 41.3313 52.8125 39.8643 52.8125H38.8018C37.3348 52.8125 36.1455 51.6233 36.1455 50.1562V34.2188Z" fill="#262626"/>
<path d="M26.583 40.5938C26.583 39.1267 27.7723 37.9375 29.2393 37.9375H30.3018C31.7688 37.9375 32.958 39.1267 32.958 40.5938V50.1562C32.958 51.6233 31.7688 52.8125 30.3018 52.8125H29.2393C27.7723 52.8125 26.583 51.6233 26.583 50.1562V40.5938Z" fill="#262626"/>
</svg>
